<svg xmlns="http://www.w3.org/2000/svg" width="294.7mm" height="45.49mm" viewBox="0 0 835.37 128.96"><g id="Layer_2" data-name="Layer 2"><g id="Layer_1-2" data-name="Layer 1"><path d="M64.34,65.73H76.06V129H16V65.73H64.34Z" fill="#008d9c" fill-rule="evenodd"/><path d="M98.68,0h9.93V53.84H57.91V0H98.68Z" fill="#4cafb3" fill-rule="evenodd"/><path d="M29.2,13.46h7.11V52H0V13.46H29.2Z" fill="#76cdd8" fill-rule="evenodd"/><path d="M124.36,77.94h7.1v38.5H95.15V77.94h29.21Z" fill="#76cdd8" fill-rule="evenodd"/><path d="M190.66,127.49h-23V2h79.91V21.24H190.66V53.69h48.67V72.91H190.66Z"/><path d="M265.21,127.49V1.81h22V127.49Z"/><path d="M397.77,81.27a56.46,56.46,0,0,1-3.15,19.3,42.37,42.37,0,0,1-9.05,14.94,40.08,40.08,0,0,1-14.24,9.6,49.31,49.31,0,0,1-18.64,3.38,50.55,50.55,0,0,1-19-3.38,39.73,39.73,0,0,1-14.24-9.6,42.31,42.31,0,0,1-9-14.94,57.2,57.2,0,0,1-3.11-19.3A56.16,56.16,0,0,1,310.57,62a42.17,42.17,0,0,1,9-14.94,40.26,40.26,0,0,1,14.24-9.6,49.21,49.21,0,0,1,18.65-3.39,50.3,50.3,0,0,1,19,3.39A39.56,39.56,0,0,1,385.71,47a42.15,42.15,0,0,1,9,14.94A57.14,57.14,0,0,1,397.77,81.27Zm-22.73,0a43,43,0,0,0-1.67-12.61,27.45,27.45,0,0,0-4.63-9.19,18.93,18.93,0,0,0-7.15-5.57,22.22,22.22,0,0,0-9.09-1.85,21.66,21.66,0,0,0-8.95,1.85,19.08,19.08,0,0,0-7.1,5.57,27.46,27.46,0,0,0-4.64,9.19,43.38,43.38,0,0,0-1.67,12.61,43.4,43.4,0,0,0,1.67,12.62A26.36,26.36,0,0,0,336.5,103a20,20,0,0,0,7.14,5.56,21.34,21.34,0,0,0,9.05,1.91,21.08,21.08,0,0,0,9-1.91,19.66,19.66,0,0,0,7.05-5.56,26.81,26.81,0,0,0,4.63-9.14A43.06,43.06,0,0,0,375,81.27Z"/><path d="M476.37,62q-2.61,13.45-6.13,26.07l-10.85,39.42H437.77L406.32,37.6h23.2l11.59,37.66q4,13.08,7.05,25.33h.38q2.59-11.88,6.21-25.33l10.3-37.66h23.19l10.11,37.66q3.25,12,6.22,25.33h.37q3.15-12.53,7.05-25.33l11.6-37.66h23.19l-31.45,89.89H493.72L482.86,88.07Q479.16,74.8,476.74,62Z"/><path d="M626.6,90.22a11.78,11.78,0,0,0-2.28-7.52,16.79,16.79,0,0,0-6.2-4.7,45.62,45.62,0,0,0-8.8-3q-4.87-1.14-10.25-2.23a132.41,132.41,0,0,1-13.58-3.69,38.12,38.12,0,0,1-11.39-5.93,27.28,27.28,0,0,1-7.84-9.61q-2.93-5.84-2.92-14.58a39.23,39.23,0,0,1,3.37-16.82,33.37,33.37,0,0,1,9.16-11.85,39,39,0,0,1,13.58-7A61.39,61.39,0,0,1,607,1,103.05,103.05,0,0,1,626.6,2.9a85.75,85.75,0,0,1,16.95,4.93V27a103,103,0,0,0-18.19-5.43A86.47,86.47,0,0,0,609,19.86q-11,0-17,4t-6,12a13.71,13.71,0,0,0,2,7.65,15.47,15.47,0,0,0,5.33,5,31.47,31.47,0,0,0,7.75,3.14c2.91.8,6,1.52,9.29,2.19q7.75,1.65,14.81,3.78a43.89,43.89,0,0,1,12.53,6,27.29,27.29,0,0,1,8.66,10q3.2,6.17,3.19,15.73a37.3,37.3,0,0,1-3.64,17,31.93,31.93,0,0,1-10.35,11.89,47,47,0,0,1-16.27,7,90.93,90.93,0,0,1-21,2.27,97.41,97.41,0,0,1-19.55-2,55.6,55.6,0,0,1-16-5.51V101.15a89.17,89.17,0,0,0,17.59,5.7,86.41,86.41,0,0,0,17.68,1.78,61.82,61.82,0,0,0,10.39-.87,31,31,0,0,0,9.16-3,17.47,17.47,0,0,0,6.51-5.7A15.38,15.38,0,0,0,626.6,90.22Z" fill="#008d9c"/><path d="M719.5,109.77a73.3,73.3,0,0,0,13.36-1.29,105,105,0,0,0,14.1-3.71V122.3a65.45,65.45,0,0,1-13.08,3.52,97.49,97.49,0,0,1-18.28,1.67A65.84,65.84,0,0,1,697.47,125a39.45,39.45,0,0,1-15-7.94,38.26,38.26,0,0,1-10.16-14.19q-3.75-8.72-3.75-21.15a59.61,59.61,0,0,1,3.52-21.43,43.56,43.56,0,0,1,9.47-15.22,38.78,38.78,0,0,1,13.59-9,42.75,42.75,0,0,1,15.81-3,46,46,0,0,1,15.73,2.6,31.56,31.56,0,0,1,12.43,8.16,38.1,38.1,0,0,1,8.17,14.34,66,66,0,0,1,2.92,20.73c-.06,3.09-.16,5.72-.28,7.89H691a26.91,26.91,0,0,0,2.78,10.62,20.39,20.39,0,0,0,6.08,7.14,24.81,24.81,0,0,0,8.77,4A44.37,44.37,0,0,0,719.5,109.77Zm-8.81-59.56a17.25,17.25,0,0,0-7.43,1.53,17.68,17.68,0,0,0-5.61,4.18,20.34,20.34,0,0,0-3.76,6.17A30,30,0,0,0,692,69.6h35.35a25.82,25.82,0,0,0-1.07-7.51,18.3,18.3,0,0,0-3.16-6.17A15.06,15.06,0,0,0,718,51.74,16.3,16.3,0,0,0,710.69,50.21Z" fill="#008d9c"/><path d="M835.37,123.23a55.48,55.48,0,0,1-10.2,3,62.06,62.06,0,0,1-12.71,1.25,57.52,57.52,0,0,1-18.18-2.78,41.07,41.07,0,0,1-14.76-8.44,39.17,39.17,0,0,1-9.92-14.33A52.46,52.46,0,0,1,766,81.66q0-13,4.17-22.26A43.32,43.32,0,0,1,781,44.32a42.83,42.83,0,0,1,14.94-8.53,51.9,51.9,0,0,1,16.37-2.74,61.63,61.63,0,0,1,11.6,1.07A53,53,0,0,1,834,37V55a50.29,50.29,0,0,0-8.67-2.83,43.69,43.69,0,0,0-9.88-1.07,31.49,31.49,0,0,0-10.11,1.62,22.88,22.88,0,0,0-8.54,5.15,24.5,24.5,0,0,0-5.89,9.33,39.58,39.58,0,0,0-2.18,14,36.74,36.74,0,0,0,1.67,11.18,25.25,25.25,0,0,0,4.87,8.95,23.44,23.44,0,0,0,8.16,6,27.91,27.91,0,0,0,11.74,2.28,45.72,45.72,0,0,0,11-1.21,66.59,66.59,0,0,0,9.27-3Z" fill="#008d9c"/></g></g></svg>